<svg width="21" height="19" viewBox="0 0 21 19" fill="none" xmlns="http://www.w3.org/2000/svg">
<path d="M12.8769 18.2138C13.4785 18.2138 14.0554 17.9748 14.4808 17.5494C14.9061 17.1241 15.1451 16.5472 15.1451 15.9456C15.1451 15.3441 14.9061 14.7672 14.4808 14.3418C14.0554 13.9164 13.4785 13.6775 12.8769 13.6775C12.2754 13.6775 11.6985 13.9164 11.2731 14.3418C10.8478 14.7672 10.6088 15.3441 10.6088 15.9456C10.6088 16.5472 10.8478 17.1241 11.2731 17.5494C11.6985 17.9748 12.2754 18.2138 12.8769 18.2138ZM4.93843 18.2138C5.53998 18.2138 6.11689 17.9748 6.54225 17.5494C6.96761 17.1241 7.20657 16.5472 7.20657 15.9456C7.20657 15.3441 6.96761 14.7672 6.54225 14.3418C6.11689 13.9164 5.53998 13.6775 4.93843 13.6775C4.33688 13.6775 3.75997 13.9164 3.33461 14.3418C2.90925 14.7672 2.67028 15.3441 2.67028 15.9456C2.67028 16.5472 2.90925 17.1241 3.33461 17.5494C3.75997 17.9748 4.33688 18.2138 4.93843 18.2138ZM19.7245 2.24942C20.0076 2.24029 20.276 2.12141 20.4731 1.91792C20.6701 1.71442 20.7803 1.44227 20.7803 1.15901C20.7803 0.875759 20.6701 0.603607 20.4731 0.400113C20.276 0.196618 20.0076 0.0777349 19.7245 0.0686035H18.4191C17.3962 0.0686035 16.5116 0.778533 16.2894 1.77652L14.8684 8.17495C14.6461 9.17294 13.7615 9.88287 12.7386 9.88287H4.21943L2.5841 3.33927H13.182C13.4624 3.32647 13.7272 3.20606 13.9211 3.00307C14.115 2.80009 14.2232 2.53016 14.2232 2.24942C14.2232 1.96869 14.115 1.69876 13.9211 1.49577C13.7272 1.29279 13.4624 1.17238 13.182 1.15958H2.5841C2.25257 1.15948 1.92538 1.23497 1.62741 1.38031C1.32943 1.52565 1.06852 1.73701 0.864498 1.99832C0.660475 2.25964 0.518715 2.56403 0.449995 2.88836C0.381275 3.21268 0.387405 3.54841 0.467916 3.87001L2.10325 10.4113C2.22114 10.8833 2.49347 11.3024 2.87692 11.6018C3.26037 11.9012 3.73293 12.0638 4.21943 12.0637H12.7386C13.7311 12.0638 14.694 11.7254 15.4683 11.1044C16.2425 10.4833 16.7818 9.61679 16.997 8.64786L18.4191 2.24942H19.7245Z" fill="white"/>
</svg>
